P3
16 16
255
0 0 0 0 0 0 3 3 3 3 3 3 3 3 3 3 3 3 8 8 8 8 8 8 8 8 8 8 8 8 10 10 10 10 10 10 10 10 10 10 10 10 10 10 10 10 10 10 
10 10 10 10 10 10 10 10 10 26 26 26 26 26 26 26 26 26 26 26 26 26 26 26 26 26 26 26 26 26 26 26 26 26 26 26 29 29 29 29 29 29 29 29 29 29 29 29 
34 34 34 34 34 34 34 34 34 34 34 34 36 36 36 36 36 36 39 39 39 39 39 39 39 39 39 39 39 39 44 44 44 44 44 44 44 44 44 44 44 44 47 47 47 47 47 47 
47 47 47 47 47 47 47 47 47 47 47 47 47 47 47 47 47 47 47 47 47 62 62 62 62 62 62 62 62 62 62 62 62 62 62 62 62 62 62 62 62 62 62 62 62 62 62 62 
65 65 65 65 65 65 65 65 65 65 65 65 70 70 70 70 70 70 70 70 70 70 70 70 73 73 73 73 73 73 73 73 73 75 75 75 75 75 75 75 75 75 75 75 75 81 81 81 
81 81 81 81 81 81 83 83 83 83 83 83 83 83 83 83 83 83 83 83 83 83 83 83 83 83 83 83 83 83 83 83 83 83 83 83 99 99 99 99 99 99 99 99 99 99 99 99 
99 99 99 99 99 99 99 99 99 99 99 99 99 99 99 102 102 102 102 102 102 102 102 102 102 102 102 107 107 107 107 107 107 107 107 107 109 109 109 109 109 109 109 109 109 112 112 112 
112 112 112 112 112 112 112 112 112 117 117 117 117 117 117 117 117 117 117 117 117 120 120 120 120 120 120 120 120 120 120 120 120 120 120 120 120 120 120 120 120 120 120 120 120 120 120 120 
135 135 135 135 135 135 135 135 135 135 135 135 135 135 135 135 135 135 135 135 135 135 135 135 135 135 135 138 138 138 138 138 138 138 138 138 138 138 138 143 143 143 143 143 143 143 143 143 
143 143 143 146 146 146 146 146 146 146 146 146 148 148 148 148 148 148 148 148 148 153 153 153 153 153 153 153 153 153 153 153 153 156 156 156 156 156 156 156 156 156 156 156 156 156 156 156 
156 156 156 156 156 156 156 156 156 156 156 156 172 172 172 172 172 172 172 172 172 172 172 172 172 172 172 172 172 172 172 172 172 172 172 172 172 172 172 172 172 172 174 174 174 174 174 174 
174 174 174 180 180 180 180 180 180 180 180 180 180 180 180 182 182 182 182 182 182 182 182 182 185 185 185 185 185 185 185 185 185 185 185 185 190 190 190 190 190 190 190 190 190 190 190 190 
193 193 193 193 193 193 193 193 193 193 193 193 193 193 193 193 193 193 193 193 193 193 193 193 193 193 193 208 208 208 208 208 208 208 208 208 208 208 208 208 208 208 208 208 208 208 208 208 
208 208 208 208 208 208 211 211 211 211 211 211 211 211 211 211 211 211 216 216 216 216 216 216 216 216 216 216 216 216 219 219 219 219 219 219 221 221 221 221 221 221 221 221 221 221 221 221 
226 226 226 226 226 226 226 226 226 226 226 226 229 229 229 229 229 229 229 229 229 229 229 229 229 229 229 229 229 229 229 229 229 229 229 229 229 229 229 245 245 245 245 245 245 245 245 245 
245 245 245 245 245 245 245 245 245 245 245 245 245 245 245 245 245 245 247 247 247 247 247 247 247 247 247 247 247 247 252 252 252 252 252 252 252 252 252 252 252 252 255 255 255 255 255 255 
