P3
4 4
7
0 0 0 0 0 4 2 0 3 0 2 2
4 0 6 2 2 5 0 4 4 5 3 0
2 4 7 0 6 6 5 5 2 3 7 1
7 5 5 5 7 4 7 7 3 7 7 7
